<svg xmlns="http://www.w3.org/2000/svg" width="60" height="60" viewBox="0 0 60 60">
  <g id="日光" transform="translate(1.25 58.75) rotate(90)">
    <g id="グループ_48" data-name="グループ 48" transform="translate(-57.75 -57.75)">
      <path id="パス_77" data-name="パス 77" d="M93.754,69.5a.39.39,0,0,0,.39-.39v-5.2a.39.39,0,0,0-.78,0v5.2A.39.39,0,0,0,93.754,69.5Zm0-6.242a.39.39,0,0,0,.39-.39V60.787a.39.39,0,0,0-.78,0v2.081A.39.39,0,0,0,93.754,63.259Zm0-4.682a.39.39,0,0,0,.39-.39V56.106a.39.39,0,1,0-.78,0v2.081A.39.39,0,0,0,93.754,58.577Zm0-7.282a.391.391,0,0,0,.39-.39V49.864a.39.39,0,0,0-.78,0V50.9A.391.391,0,0,0,93.754,51.295Zm0-3.121a.39.39,0,0,0,.39-.39v-2.6a.39.39,0,1,0-.78,0v2.6A.39.39,0,0,0,93.754,48.173Zm0-4.682a.39.39,0,0,0,.39-.39V37.9a.39.39,0,1,0-.78,0v5.2A.39.39,0,0,0,93.754,43.492Zm0-6.242a.39.39,0,0,0,.39-.39V34.778a.39.39,0,0,0-.78,0v2.081A.39.39,0,0,0,93.754,37.25Zm0-4.682a.39.39,0,0,0,.39-.39V30.1a.39.39,0,0,0-.78,0v2.081A.39.39,0,0,0,93.754,32.568Z" transform="translate(-93.364 -11.501)" fill="#fff" stroke="#fff" stroke-width="2"/>
      <path id="パス_78" data-name="パス 78" d="M93.754,69.5a.39.39,0,0,0,.39-.39v-5.2a.39.39,0,0,0-.78,0v5.2A.39.39,0,0,0,93.754,69.5Zm0-6.242a.39.39,0,0,0,.39-.39V60.787a.39.39,0,0,0-.78,0v2.081A.39.39,0,0,0,93.754,63.259Zm0-4.682a.39.39,0,0,0,.39-.39V56.106a.39.39,0,1,0-.78,0v2.081A.39.39,0,0,0,93.754,58.577Zm0-7.282a.391.391,0,0,0,.39-.39V49.864a.39.39,0,0,0-.78,0V50.9A.391.391,0,0,0,93.754,51.295Zm0-3.121a.39.39,0,0,0,.39-.39v-2.6a.39.39,0,1,0-.78,0v2.6A.39.39,0,0,0,93.754,48.173Zm0-4.682a.39.39,0,0,0,.39-.39V37.9a.39.39,0,1,0-.78,0v5.2A.39.39,0,0,0,93.754,43.492Zm0-6.242a.39.39,0,0,0,.39-.39V34.778a.39.39,0,0,0-.78,0v2.081A.39.39,0,0,0,93.754,37.25Zm0-4.682a.39.39,0,0,0,.39-.39V30.1a.39.39,0,0,0-.78,0v2.081A.39.39,0,0,0,93.754,32.568Z" transform="translate(-93.364 -11.501)" fill="#fff" stroke="#fff" stroke-width="2"/>
      <path id="パス_79" data-name="パス 79" d="M.39.78H2.471a.39.39,0,1,0,0-.78H.39a.39.39,0,1,0,0,.78Zm4.682,0H7.153a.39.39,0,1,0,0-.78H5.072a.39.39,0,1,0,0,.78Zm3.121,0h5.2a.39.39,0,1,0,0-.78h-5.2a.39.39,0,1,0,0,.78Zm7.282,0h2.6a.39.39,0,1,0,0-.78h-2.6a.39.39,0,0,0,0,.78Zm4.682,0H21.2a.39.39,0,0,0,0-.78H20.157a.39.39,0,0,0,0,.78ZM26.4.78H28.48a.39.39,0,1,0,0-.78H26.4a.39.39,0,0,0,0,.78Zm4.682,0h2.081a.39.39,0,1,0,0-.78H31.081a.39.39,0,0,0,0,.78ZM34.2.78h5.2a.39.39,0,1,0,0-.78H34.2a.39.39,0,1,0,0,.78Z" transform="translate(18.206)" fill="#fff" stroke="#fff" stroke-width="2"/>
      <path id="パス_80" data-name="パス 80" d="M41.256,18.567a.39.39,0,0,0,.1-.767l-5.024-1.346a.39.39,0,0,0-.2.754l5.024,1.346A.39.39,0,0,0,41.256,18.567Zm-6.03-1.616a.39.39,0,0,0,.1-.767l-2.01-.539a.39.39,0,1,0-.2.754l2.01.539A.416.416,0,0,0,35.226,16.951ZM30.7,15.74a.39.39,0,0,0,.1-.767l-2.01-.539a.39.39,0,0,0-.2.754l2.01.539A.39.39,0,0,0,30.7,15.74ZM23.67,13.855a.39.39,0,0,0,.1-.767l-1-.269a.39.39,0,1,0-.2.754l1.005.27A.409.409,0,0,0,23.67,13.855Zm-3.015-.808a.39.39,0,0,0,.1-.767l-2.512-.673a.39.39,0,0,0-.2.754l2.513.673A.382.382,0,0,0,20.655,13.047Zm-4.522-1.212a.39.39,0,0,0,.1-.767L11.209,9.721a.39.39,0,0,0-.2.754l5.024,1.346A.389.389,0,0,0,16.133,11.835ZM10.1,10.22a.39.39,0,0,0,.1-.767l-2.01-.539a.39.39,0,0,0-.2.754l2.01.539A.382.382,0,0,0,10.1,10.22ZM5.581,9.008a.39.39,0,0,0,.1-.767L3.673,7.7a.39.39,0,0,0-.2.754l2.01.539A.386.386,0,0,0,5.581,9.008Z" transform="translate(14.405 -2.977)" fill="#fff" stroke="#fff" stroke-width="2"/>
      <path id="パス_81" data-name="パス 81" d="M46.685,35.141a.39.39,0,0,0,.195-.728l-4.5-2.6a.39.39,0,1,0-.39.675l4.505,2.6A.387.387,0,0,0,46.685,35.141ZM41.279,32.02a.39.39,0,0,0,.195-.728l-1.8-1.041a.39.39,0,0,0-.39.676l1.8,1.04A.387.387,0,0,0,41.279,32.02Zm-4.055-2.341a.39.39,0,0,0,.2-.728l-1.8-1.04a.39.39,0,1,0-.39.675l1.8,1.041A.385.385,0,0,0,37.225,29.678Zm-6.306-3.641a.39.39,0,0,0,.195-.728l-.9-.52a.39.39,0,0,0-.39.676l.9.52A.387.387,0,0,0,30.918,26.037Zm-2.7-1.56a.39.39,0,0,0,.195-.728l-2.252-1.3a.39.39,0,1,0-.39.675l2.253,1.3A.387.387,0,0,0,28.215,24.477Zm-4.055-2.341a.39.39,0,0,0,.2-.728l-4.505-2.6a.39.39,0,1,0-.39.675l4.5,2.6A.388.388,0,0,0,24.161,22.136Zm-5.406-3.121a.39.39,0,0,0,.2-.728l-1.8-1.041a.39.39,0,1,0-.39.676l1.8,1.04A.386.386,0,0,0,18.755,19.015ZM14.7,16.674a.39.39,0,0,0,.2-.728l-1.8-1.04a.39.39,0,1,0-.39.675l1.8,1.041A.388.388,0,0,0,14.7,16.674Z" transform="translate(3.259 -5.75)" fill="#fff" stroke="#fff" stroke-width="2"/>
      <path id="パス_82" data-name="パス 82" d="M55.323,49.373a.39.39,0,0,0,.276-.666l-3.678-3.678a.39.39,0,1,0-.552.552l3.678,3.678A.387.387,0,0,0,55.323,49.373Zm-4.414-4.414a.39.39,0,0,0,.276-.666l-1.472-1.471a.39.39,0,0,0-.552.552l1.472,1.471A.387.387,0,0,0,50.909,44.959ZM47.6,41.649a.39.39,0,0,0,.276-.666L46.4,39.512a.39.39,0,0,0-.552.552l1.471,1.471A.389.389,0,0,0,47.6,41.649ZM42.449,36.5a.39.39,0,0,0,.276-.666l-.736-.735a.39.39,0,0,0-.552.552l.736.735A.387.387,0,0,0,42.449,36.5Zm-2.207-2.207a.39.39,0,0,0,.276-.666l-1.839-1.839a.39.39,0,1,0-.552.552l1.839,1.839A.389.389,0,0,0,40.242,34.292Zm-3.311-3.311a.39.39,0,0,0,.276-.666L33.53,26.638a.39.39,0,0,0-.552.552l3.678,3.678A.389.389,0,0,0,36.932,30.982Zm-4.414-4.414a.39.39,0,0,0,.276-.666l-1.471-1.471a.39.39,0,1,0-.552.552l1.471,1.471A.389.389,0,0,0,32.518,26.568Zm-3.31-3.31a.39.39,0,0,0,.276-.666l-1.471-1.471a.39.39,0,1,0-.552.552l1.472,1.471A.387.387,0,0,0,29.208,23.258Z" transform="translate(-14.473 -8.132)" fill="#fff" stroke="#fff" stroke-width="2"/>
      <path id="パス_83" data-name="パス 83" d="M66.579,60.294a.386.386,0,0,0,.195-.052.39.39,0,0,0,.143-.533l-2.6-4.505a.39.39,0,0,0-.675.39l2.6,4.505A.389.389,0,0,0,66.579,60.294Zm-3.121-5.406A.39.39,0,0,0,63.8,54.3l-1.041-1.8a.39.39,0,0,0-.675.39l1.04,1.8A.39.39,0,0,0,63.458,54.888Zm-2.341-4.054a.391.391,0,0,0,.338-.585l-1.04-1.8a.39.39,0,1,0-.675.39l1.04,1.8A.389.389,0,0,0,61.117,50.834Zm-3.641-6.307a.386.386,0,0,0,.195-.052.39.39,0,0,0,.143-.533l-.52-.9a.39.39,0,1,0-.675.39l.52.9A.389.389,0,0,0,57.476,44.527Zm-1.56-2.7a.391.391,0,0,0,.338-.585l-1.3-2.252a.39.39,0,1,0-.675.39l1.3,2.253A.39.39,0,0,0,55.916,41.824Zm-2.341-4.055a.39.39,0,0,0,.337-.585l-2.6-4.5a.39.39,0,0,0-.676.39l2.6,4.505A.39.39,0,0,0,53.575,37.769Zm-3.121-5.406a.391.391,0,0,0,.338-.585l-1.041-1.8a.39.39,0,0,0-.675.39l1.04,1.8A.39.39,0,0,0,50.454,32.364Zm-2.341-4.055a.385.385,0,0,0,.194-.052.39.39,0,0,0,.143-.533l-1.04-1.8a.39.39,0,1,0-.676.39l1.041,1.8A.39.39,0,0,0,48.113,28.309Z" transform="translate(-37.579 -9.959)" fill="#fff" stroke="#fff" stroke-width="2"/>
      <path id="パス_84" data-name="パス 84" d="M79.687,67.159a.408.408,0,0,0,.1-.013.391.391,0,0,0,.276-.478l-1.346-5.025a.39.39,0,0,0-.754.2l1.346,5.024A.391.391,0,0,0,79.687,67.159ZM78.072,61.13a.386.386,0,0,0,.1-.013.39.39,0,0,0,.276-.478l-.538-2.01a.39.39,0,0,0-.754.2l.538,2.01A.391.391,0,0,0,78.072,61.13ZM76.86,56.608a.409.409,0,0,0,.1-.013.391.391,0,0,0,.276-.478l-.538-2.01a.39.39,0,0,0-.754.2l.538,2.01A.391.391,0,0,0,76.86,56.608Zm-1.885-7.034a.417.417,0,0,0,.1-.013.39.39,0,0,0,.276-.478l-.27-1.005a.39.39,0,0,0-.754.2l.27,1.005A.39.39,0,0,0,74.975,49.573Zm-.808-3.015a.417.417,0,0,0,.1-.013.39.39,0,0,0,.276-.478l-.674-2.512a.39.39,0,1,0-.754.2l.674,2.512A.39.39,0,0,0,74.167,46.558Zm-1.212-4.522a.391.391,0,0,0,.378-.492l-1.346-5.024a.39.39,0,1,0-.754.2l1.346,5.024A.39.39,0,0,0,72.956,42.037ZM71.34,36.007a.418.418,0,0,0,.1-.013.39.39,0,0,0,.276-.478l-.539-2.01a.39.39,0,1,0-.754.2l.539,2.01A.39.39,0,0,0,71.34,36.007Zm-1.212-4.522a.408.408,0,0,0,.1-.013.391.391,0,0,0,.276-.478l-.539-2.01a.39.39,0,1,0-.754.2l.538,2.01A.391.391,0,0,0,70.129,31.485Z" transform="translate(-64.488 -11.109)" fill="#fff" stroke="#fff" stroke-width="2"/>
    </g>
  </g>
</svg>
