<svg xmlns="http://www.w3.org/2000/svg" width="180" height="180" viewBox="0 0 180 180">
  <g id="グループ_64" data-name="グループ 64" transform="translate(-248.667 -3774)">
    <g id="グループ_27" data-name="グループ 27" transform="translate(-0.333)">
      <circle id="楕円形_3" data-name="楕円形 3" cx="90" cy="90" r="90" transform="translate(249 3774)" fill="#42b1af"/>
    </g>
    <g id="グループ_41" data-name="グループ 41" transform="translate(2386.988 -14.459)">
      <path id="合体_2" data-name="合体 2" d="M5,24a5,5,0,0,1-5-5v-.286a5,5,0,0,1,5-5H39.322a5,5,0,0,1-.252-1.571v-.285a5,5,0,0,1,.252-1.571H5a5,5,0,0,1-5-5V5A5,5,0,0,1,5,0H55a5,5,0,0,1,5,5v.285a4.982,4.982,0,0,1-1.231,3.286A4.982,4.982,0,0,1,60,11.858v.285a4.982,4.982,0,0,1-1.231,3.286A4.982,4.982,0,0,1,60,18.715V19a5,5,0,0,1-5,5Z" transform="translate(-2071.321 3869.458)" fill="#42b1af" stroke="#fff" stroke-linecap="round" stroke-linejoin="round" stroke-width="2"/>
      <path id="合体_1" data-name="合体 1" d="M52.187,94V73.755h.085a12.287,12.287,0,0,1-.085-1.446c0-6.391,4.919-11.569,10.987-11.569A10.518,10.518,0,0,1,68.7,62.305,10.907,10.907,0,0,1,78.28,56.4a10.505,10.505,0,0,1,5.208,1.38,11.314,11.314,0,0,1,2.119-2.1A11.957,11.957,0,0,1,84.747,37.6a11.982,11.982,0,0,1,0-17.354,11.364,11.364,0,0,1-.973-1.024,10.626,10.626,0,0,1-16.48,0,10.608,10.608,0,0,1-15.793.749,10.608,10.608,0,0,1-15.794-.749,10.626,10.626,0,0,1-16.48,0,11.374,11.374,0,0,1-.972,1.024,12,12,0,0,1,.711,16.631,12.018,12.018,0,0,1,0,15.908,11.863,11.863,0,0,1,3.009,7.954c0,6.389-4.919,11.569-10.987,11.569S0,67.128,0,60.739a11.863,11.863,0,0,1,3.009-7.954,12.018,12.018,0,0,1,0-15.908,12,12,0,0,1,.711-16.631A11.813,11.813,0,0,1,0,11.569C0,5.18,4.919,0,10.987,0a10.733,10.733,0,0,1,8.24,3.917,10.626,10.626,0,0,1,16.48,0A10.608,10.608,0,0,1,51.5,3.168a10.608,10.608,0,0,1,15.793.749,10.626,10.626,0,0,1,16.48,0A10.73,10.73,0,0,1,92.013,0C98.082,0,103,5.18,103,11.569a11.813,11.813,0,0,1-3.719,8.677,11.981,11.981,0,0,1,0,17.354,11.957,11.957,0,0,1-.861,18.077,11.753,11.753,0,0,1,4.58,9.4c0,6.389-4.918,11.569-10.987,11.569a10.5,10.5,0,0,1-5.207-1.38,10.765,10.765,0,0,1-8.526,4.272,10.517,10.517,0,0,1-5.524-1.567,11,11,0,0,1-8.209,5.815V94Z" transform="translate(-2099.321 3838.458)" fill="#42b1af" stroke="#fff" stroke-linecap="round" stroke-linejoin="round" stroke-width="4"/>
    </g>
  </g>
</svg>
