<svg xmlns="http://www.w3.org/2000/svg" width="180" height="180" viewBox="0 0 180 180">
  <g id="グループ_63" data-name="グループ 63" transform="translate(-249.333 -3774)">
    <g id="グループ_27" data-name="グループ 27" transform="translate(0.333)">
      <circle id="楕円形_3" data-name="楕円形 3" cx="90" cy="90" r="90" transform="translate(249 3774)" fill="#42b1af"/>
    </g>
    <g id="グループ_42" data-name="グループ 42" transform="translate(-698.932 -157.333)">
      <path id="パス_73" data-name="パス 73" d="M816.8,3945.89c-24.4,19.614-24.877,37.794-32.053,53.1s13.874,16.744,16.266,13.4,11.482-5.741,15.787-5.741,12.439,0,13.4-7.654S841.2,3926.275,816.8,3945.89Z" transform="translate(197 49.43)" fill="none" stroke="#fff" stroke-linecap="round" stroke-linejoin="round" stroke-width="5"/>
      <path id="パス_74" data-name="パス 74" d="M799.514,3945.89c24.4,19.614,24.877,37.794,32.053,53.1s-13.874,16.744-16.266,13.4-11.482-5.741-15.787-5.741-12.439,0-13.4-7.654S775.116,3926.275,799.514,3945.89Z" transform="translate(262.525 49.43)" fill="none" stroke="#fff" stroke-linecap="round" stroke-linejoin="round" stroke-width="5"/>
      <path id="パス_75" data-name="パス 75" d="M840.038,3967.333v30.618c0,7.655-24.877,17.7-26.312,23.442a140.542,140.542,0,0,0-2.392,15.788" transform="translate(196.968 0)" fill="none" stroke="#fff" stroke-linecap="round" stroke-linejoin="round" stroke-width="6"/>
      <path id="パス_76" data-name="パス 76" d="M811.333,3967.333v30.618c0,7.655,24.877,17.7,26.312,23.442a140.531,140.531,0,0,1,2.392,15.788" transform="translate(225.672 0)" fill="none" stroke="#fff" stroke-linecap="round" stroke-linejoin="round" stroke-width="6"/>
    </g>
  </g>
</svg>
