<svg xmlns="http://www.w3.org/2000/svg" xmlns:xlink="http://www.w3.org/1999/xlink" width="119" height="124.126" viewBox="0 0 119 124.126">
  <defs>
    <clipPath id="clip-path">
      <rect id="長方形_118" data-name="長方形 118" width="55.818" height="108.885" fill="none"/>
    </clipPath>
  </defs>
  <g id="グループ_94" data-name="グループ 94" transform="translate(10412.333 -1819)">
    <g id="グループ_93" data-name="グループ 93">
      <ellipse id="楕円形_3" data-name="楕円形 3" cx="59.5" cy="60" rx="59.5" ry="60" transform="translate(-10412.333 1819)" fill="#42b1af"/>
      <g id="グループ_81" data-name="グループ 81" transform="translate(-10381.242 1834.242)">
        <rect id="長方形_114" data-name="長方形 114" width="5.959" height="21.6" transform="translate(32.128 6.964) rotate(-67.043)" fill="#42b1af"/>
        <g id="グループ_80" data-name="グループ 80">
          <g id="グループ_79" data-name="グループ 79" clip-path="url(#clip-path)">
            <path id="パス_329" data-name="パス 329" d="M125.147,16.866a1.477,1.477,0,0,1-.576-.117L104.682,8.323a1.477,1.477,0,0,1-.784-1.936L106.223.9a1.477,1.477,0,0,1,1.936-.784l19.889,8.425a1.477,1.477,0,0,1,.784,1.936l-2.325,5.486a1.477,1.477,0,0,1-1.36.9M107.194,6.18l17.17,7.273,1.173-2.767-17.17-7.273Z" transform="translate(-73.13 0)" fill="#fff"/>
            <rect id="長方形_115" data-name="長方形 115" width="52.385" height="14.971" transform="translate(8.328 71.642) rotate(-67.041)" fill="#42b1af"/>
            <path id="パス_330" data-name="パス 330" d="M121.588,45.475,111.42,41.168l5.054-9.223,8.224,3.484Z" transform="translate(-78.513 -22.51)" fill="#42b1af"/>
            <path id="パス_331" data-name="パス 331" d="M118.065,43.428a1.477,1.477,0,0,1-.576-.117L107.321,39a1.477,1.477,0,0,1-.719-2.069l5.054-9.223a1.477,1.477,0,0,1,1.871-.65l8.224,3.484a1.476,1.476,0,0,1,.835,1.8l-3.11,10.047a1.477,1.477,0,0,1-1.411,1.04m-8.088-6.507,7.16,3.033,2.232-7.211L113.6,30.3Z" transform="translate(-74.99 -18.986)" fill="#fff"/>
            <rect id="長方形_116" data-name="長方形 116" width="5.747" height="27.934" transform="matrix(0.39, -0.921, 0.921, 0.39, 22.821, 20.816)" fill="#42b1af"/>
            <path id="パス_332" data-name="パス 332" d="M99.467,66.7a1.471,1.471,0,0,1-.575-.118L73.17,55.691a1.477,1.477,0,0,1-.784-1.936l2.242-5.292a1.477,1.477,0,0,1,1.936-.784l25.722,10.9a1.476,1.476,0,0,1,.784,1.936L100.827,65.8a1.477,1.477,0,0,1-1.36.9M75.681,53.548l23,9.744,1.09-2.572-23-9.744Z" transform="translate(-50.925 -33.516)" fill="#fff"/>
            <rect id="長方形_117" data-name="長方形 117" width="11.025" height="7.327" transform="translate(7.494 83.411) rotate(-67.038)" fill="#42b1af"/>
            <path id="パス_333" data-name="パス 333" d="M28.6,259.012a1.477,1.477,0,0,1-.576-.117l-6.746-2.858a1.477,1.477,0,0,1-.784-1.936l4.3-10.151a1.478,1.478,0,0,1,1.936-.784l6.747,2.858a1.476,1.476,0,0,1,.784,1.936l-4.3,10.151a1.476,1.476,0,0,1-1.36.9m-4.811-5.119,4.027,1.706,3.149-7.432-4.027-1.706Z" transform="translate(-14.355 -171.266)" fill="#fff"/>
            <path id="パス_334" data-name="パス 334" d="M12.68,292.436a1.182,1.182,0,0,1-1.087-1.642l1.656-3.711a1.181,1.181,0,0,1,2.176.922l-1.657,3.711a1.182,1.182,0,0,1-1.088.721" transform="translate(-3.858 -201.787)" fill="#fff"/>
            <path id="パス_335" data-name="パス 335" d="M38.457,131.281a1.472,1.472,0,0,1-.575-.118L24.1,125.324a1.476,1.476,0,0,1-.784-1.936L43.747,75.153a1.477,1.477,0,0,1,1.936-.784l13.785,5.84a1.477,1.477,0,0,1,.784,1.936L39.818,130.38a1.477,1.477,0,0,1-1.361.9m-11.849-8.1,11.066,4.688L56.956,82.353,45.891,77.665Z" transform="translate(-16.345 -52.322)" fill="#fff"/>
            <line id="線_47" data-name="線 47" x2="3.371" y2="1.428" transform="translate(35.312 34.245)" fill="#fff"/>
            <path id="パス_336" data-name="パス 336" d="M120.115,115.739a1.177,1.177,0,0,1-.46-.094l-3.371-1.428a1.181,1.181,0,0,1,.921-2.176l3.372,1.428a1.181,1.181,0,0,1-.461,2.269" transform="translate(-81.432 -78.885)" fill="#fff"/>
            <line id="線_48" data-name="線 48" x2="3.372" y2="1.428" transform="translate(32.395 41.132)" fill="#fff"/>
            <path id="パス_337" data-name="パス 337" d="M110.238,139.061a1.176,1.176,0,0,1-.46-.094l-3.372-1.428a1.181,1.181,0,0,1,.921-2.176l3.372,1.428a1.182,1.182,0,0,1-.461,2.269" transform="translate(-74.472 -95.318)" fill="#fff"/>
            <line id="線_49" data-name="線 49" x2="3.371" y2="1.428" transform="translate(29.477 48.02)" fill="#fff"/>
            <path id="パス_338" data-name="パス 338" d="M100.358,162.383a1.178,1.178,0,0,1-.46-.094l-3.371-1.428a1.181,1.181,0,0,1,.922-2.176l3.371,1.428a1.182,1.182,0,0,1-.461,2.269" transform="translate(-67.51 -111.752)" fill="#fff"/>
            <line id="線_50" data-name="線 50" x2="3.372" y2="1.429" transform="translate(26.56 54.907)" fill="#fff"/>
            <path id="パス_339" data-name="パス 339" d="M90.48,185.7a1.178,1.178,0,0,1-.46-.094l-3.372-1.429A1.181,1.181,0,0,1,87.569,182l3.372,1.429a1.182,1.182,0,0,1-.461,2.269" transform="translate(-60.549 -128.184)" fill="#fff"/>
            <line id="線_51" data-name="線 51" x2="3.372" y2="1.428" transform="translate(23.642 61.795)" fill="#fff"/>
            <path id="パス_340" data-name="パス 340" d="M80.6,209.021a1.176,1.176,0,0,1-.46-.094L76.769,207.5a1.181,1.181,0,1,1,.921-2.175l3.372,1.428a1.182,1.182,0,0,1-.461,2.269" transform="translate(-53.588 -144.616)" fill="#fff"/>
            <line id="線_52" data-name="線 52" x2="3.372" y2="1.428" transform="translate(20.724 68.682)" fill="#fff"/>
            <path id="パス_341" data-name="パス 341" d="M70.722,232.341a1.176,1.176,0,0,1-.46-.094l-3.372-1.428a1.181,1.181,0,1,1,.921-2.175l3.372,1.428a1.182,1.182,0,0,1-.461,2.269" transform="translate(-46.626 -161.049)" fill="#fff"/>
          </g>
        </g>
      </g>
    </g>
  </g>
</svg>
